<?xml version="1.0" encoding="UTF-8" standalone="no"?>
<!DOCTYPE svg PUBLIC "-//W3C//DTD SVG 1.1//EN"
 "http://www.w3.org/Graphics/SVG/1.1/DTD/svg11.dtd">
<!-- Generated by graphviz version 2.26.3 (20100126.1600)
 -->
<!-- Title: models_diagram Pages: 1 -->
<svg width="2092pt" height="894pt"
 viewBox="0.00 0.00 2092.00 894.00" xmlns="http://www.w3.org/2000/svg" xmlns:xlink="http://www.w3.org/1999/xlink">
<g id="graph1" class="graph" transform="scale(1 1) rotate(0) translate(4 890)">
<title>models_diagram</title>
<polygon fill="white" stroke="white" points="-4,5 -4,-890 2089,-890 2089,5 -4,5"/>
<!-- _diagram_info -->
<g id="node1" class="node"><title>_diagram_info</title>
<text text-anchor="start" x="8" y="-819.4" font-family="Times Roman,serif" font-size="14.00">Models diagram</text>
<text text-anchor="start" x="8" y="-801.4" font-family="Times Roman,serif" font-size="14.00">Date: Oct 05 2010 &#45; 11:27</text>
<text text-anchor="start" x="8" y="-783.4" font-family="Times Roman,serif" font-size="14.00">Migration version: 20090919125328</text>
<text text-anchor="start" x="8" y="-765.4" font-family="Times Roman,serif" font-size="14.00">Generated by RailRoad 0.5.0</text>
</g>
<!-- Assistance -->
<g id="node2" class="node"><title>Assistance</title>
<polyline fill="none" stroke="black" points="254.5,-498 395.5,-498 "/>
<path fill="none" stroke="black" d="M395.5,-498C401.5,-498 407.5,-504 407.5,-510"/>
<polyline fill="none" stroke="black" points="407.5,-510 407.5,-610 "/>
<path fill="none" stroke="black" d="M407.5,-610C407.5,-616 401.5,-622 395.5,-622"/>
<polyline fill="none" stroke="black" points="395.5,-622 254.5,-622 "/>
<path fill="none" stroke="black" d="M254.5,-622C248.5,-622 242.5,-616 242.5,-610"/>
<polyline fill="none" stroke="black" points="242.5,-610 242.5,-510 "/>
<path fill="none" stroke="black" d="M242.5,-510C242.5,-504 248.5,-498 254.5,-498"/>
<text text-anchor="middle" x="325" y="-605.4" font-family="Times Roman,serif" font-size="14.00">Assistance</text>
<polyline fill="none" stroke="black" points="242.5,-596 407.5,-596 "/>
<text text-anchor="start" x="250.5" y="-579.4" font-family="Times Roman,serif" font-size="14.00">day :date</text>
<text text-anchor="start" x="250.5" y="-561.4" font-family="Times Roman,serif" font-size="14.00">arrive :time</text>
<text text-anchor="start" x="250.5" y="-543.4" font-family="Times Roman,serif" font-size="14.00">leave :time</text>
<text text-anchor="start" x="250.5" y="-525.4" font-family="Times Roman,serif" font-size="14.00">created_at :datetime</text>
<text text-anchor="start" x="250.5" y="-507.4" font-family="Times Roman,serif" font-size="14.00">updated_at :datetime</text>
</g>
<!-- UserMessage -->
<g id="node3" class="node"><title>UserMessage</title>
<polyline fill="none" stroke="black" points="542.5,-1 625.5,-1 "/>
<path fill="none" stroke="black" d="M625.5,-1C631.5,-1 637.5,-7 637.5,-13"/>
<polyline fill="none" stroke="black" points="637.5,-13 637.5,-41 "/>
<path fill="none" stroke="black" d="M637.5,-41C637.5,-47 631.5,-53 625.5,-53"/>
<polyline fill="none" stroke="black" points="625.5,-53 542.5,-53 "/>
<path fill="none" stroke="black" d="M542.5,-53C536.5,-53 530.5,-47 530.5,-41"/>
<polyline fill="none" stroke="black" points="530.5,-41 530.5,-13 "/>
<path fill="none" stroke="black" d="M530.5,-13C530.5,-7 536.5,-1 542.5,-1"/>
<text text-anchor="middle" x="584" y="-36.4" font-family="Times Roman,serif" font-size="14.00">UserMessage</text>
<polyline fill="none" stroke="black" points="530.5,-27 637.5,-27 "/>
<text text-anchor="start" x="538.5" y="-10.4" font-family="Times Roman,serif" font-size="14.00">state :string</text>
</g>
<!-- Sector -->
<g id="node4" class="node"><title>Sector</title>
<polyline fill="none" stroke="black" points="806.5,-507 947.5,-507 "/>
<path fill="none" stroke="black" d="M947.5,-507C953.5,-507 959.5,-513 959.5,-519"/>
<polyline fill="none" stroke="black" points="959.5,-519 959.5,-601 "/>
<path fill="none" stroke="black" d="M959.5,-601C959.5,-607 953.5,-613 947.5,-613"/>
<polyline fill="none" stroke="black" points="947.5,-613 806.5,-613 "/>
<path fill="none" stroke="black" d="M806.5,-613C800.5,-613 794.5,-607 794.5,-601"/>
<polyline fill="none" stroke="black" points="794.5,-601 794.5,-519 "/>
<path fill="none" stroke="black" d="M794.5,-519C794.5,-513 800.5,-507 806.5,-507"/>
<text text-anchor="middle" x="877" y="-596.4" font-family="Times Roman,serif" font-size="14.00">Sector</text>
<polyline fill="none" stroke="black" points="794.5,-587 959.5,-587 "/>
<text text-anchor="start" x="802.5" y="-570.4" font-family="Times Roman,serif" font-size="14.00">name :string</text>
<text text-anchor="start" x="802.5" y="-552.4" font-family="Times Roman,serif" font-size="14.00">created_at :datetime</text>
<text text-anchor="start" x="802.5" y="-534.4" font-family="Times Roman,serif" font-size="14.00">updated_at :datetime</text>
<text text-anchor="start" x="802.5" y="-516.4" font-family="Times Roman,serif" font-size="14.00">english_name :string</text>
</g>
<!-- Profile -->
<g id="node9" class="node"><title>Profile</title>
<polyline fill="none" stroke="black" points="792.5,-93 961.5,-93 "/>
<path fill="none" stroke="black" d="M961.5,-93C967.5,-93 973.5,-99 973.5,-105"/>
<polyline fill="none" stroke="black" points="973.5,-105 973.5,-385 "/>
<path fill="none" stroke="black" d="M973.5,-385C973.5,-391 967.5,-397 961.5,-397"/>
<polyline fill="none" stroke="black" points="961.5,-397 792.5,-397 "/>
<path fill="none" stroke="black" d="M792.5,-397C786.5,-397 780.5,-391 780.5,-385"/>
<polyline fill="none" stroke="black" points="780.5,-385 780.5,-105 "/>
<path fill="none" stroke="black" d="M780.5,-105C780.5,-99 786.5,-93 792.5,-93"/>
<text text-anchor="middle" x="877" y="-380.4" font-family="Times Roman,serif" font-size="14.00">Profile</text>
<polyline fill="none" stroke="black" points="780.5,-371 973.5,-371 "/>
<text text-anchor="start" x="788.5" y="-354.4" font-family="Times Roman,serif" font-size="14.00">company_name :string</text>
<text text-anchor="start" x="788.5" y="-336.4" font-family="Times Roman,serif" font-size="14.00">address :string</text>
<text text-anchor="start" x="788.5" y="-318.4" font-family="Times Roman,serif" font-size="14.00">zip_code :integer</text>
<text text-anchor="start" x="788.5" y="-300.4" font-family="Times Roman,serif" font-size="14.00">products :string</text>
<text text-anchor="start" x="788.5" y="-282.4" font-family="Times Roman,serif" font-size="14.00">packages :string</text>
<text text-anchor="start" x="788.5" y="-264.4" font-family="Times Roman,serif" font-size="14.00">commercial_profile :string</text>
<text text-anchor="start" x="788.5" y="-246.4" font-family="Times Roman,serif" font-size="14.00">created_at :datetime</text>
<text text-anchor="start" x="788.5" y="-228.4" font-family="Times Roman,serif" font-size="14.00">updated_at :datetime</text>
<text text-anchor="start" x="788.5" y="-210.4" font-family="Times Roman,serif" font-size="14.00">phone :integer</text>
<text text-anchor="start" x="788.5" y="-192.4" font-family="Times Roman,serif" font-size="14.00">fax :integer</text>
<text text-anchor="start" x="788.5" y="-174.4" font-family="Times Roman,serif" font-size="14.00">website :string</text>
<text text-anchor="start" x="788.5" y="-156.4" font-family="Times Roman,serif" font-size="14.00">stand :string</text>
<text text-anchor="start" x="788.5" y="-138.4" font-family="Times Roman,serif" font-size="14.00">languages :string</text>
<text text-anchor="start" x="788.5" y="-120.4" font-family="Times Roman,serif" font-size="14.00">contact_person :string</text>
<text text-anchor="start" x="788.5" y="-102.4" font-family="Times Roman,serif" font-size="14.00">mobile_phone :string</text>
</g>
<!-- Sector&#45;&gt;Profile -->
<g id="edge2" class="edge"><title>Sector&#45;&gt;Profile</title>
<path fill="none" stroke="black" d="M877,-496.612C877,-470.597 877,-439.172 877,-407.477"/>
<polygon fill="black" stroke="black" points="877,-496.921 872.5,-506.921 877,-501.921 877,-506.921 877,-506.921 877,-506.921 877,-501.921 881.5,-506.921 877,-496.921 877,-496.921"/>
<polygon fill="black" stroke="black" points="877,-407.184 881.5,-397.184 877,-402.184 877,-397.184 877,-397.184 877,-397.184 877,-402.184 872.5,-397.184 877,-407.184 877,-407.184"/>
</g>
<!-- Message -->
<g id="node5" class="node"><title>Message</title>
<polyline fill="none" stroke="black" points="362.5,-192 503.5,-192 "/>
<path fill="none" stroke="black" d="M503.5,-192C509.5,-192 515.5,-198 515.5,-204"/>
<polyline fill="none" stroke="black" points="515.5,-204 515.5,-286 "/>
<path fill="none" stroke="black" d="M515.5,-286C515.5,-292 509.5,-298 503.5,-298"/>
<polyline fill="none" stroke="black" points="503.5,-298 362.5,-298 "/>
<path fill="none" stroke="black" d="M362.5,-298C356.5,-298 350.5,-292 350.5,-286"/>
<polyline fill="none" stroke="black" points="350.5,-286 350.5,-204 "/>
<path fill="none" stroke="black" d="M350.5,-204C350.5,-198 356.5,-192 362.5,-192"/>
<text text-anchor="middle" x="433" y="-281.4" font-family="Times Roman,serif" font-size="14.00">Message</text>
<polyline fill="none" stroke="black" points="350.5,-272 515.5,-272 "/>
<text text-anchor="start" x="358.5" y="-255.4" font-family="Times Roman,serif" font-size="14.00">message :text</text>
<text text-anchor="start" x="358.5" y="-237.4" font-family="Times Roman,serif" font-size="14.00">created_at :datetime</text>
<text text-anchor="start" x="358.5" y="-219.4" font-family="Times Roman,serif" font-size="14.00">updated_at :datetime</text>
<text text-anchor="start" x="358.5" y="-201.4" font-family="Times Roman,serif" font-size="14.00">subject :string</text>
</g>
<!-- Message&#45;&gt;UserMessage -->
<g id="edge6" class="edge"><title>Message&#45;&gt;UserMessage</title>
<path fill="none" stroke="black" d="M475.586,-183.518C503.414,-143.343 538.659,-92.4597 561.271,-59.8144"/>
<polygon fill="black" stroke="black" points="475.44,-183.729 466.046,-189.388 472.593,-187.84 469.746,-191.95 469.746,-191.95 469.746,-191.95 472.593,-187.84 473.445,-194.512 475.44,-183.729 475.44,-183.729"/>
<ellipse fill="black" stroke="black" cx="563.619" cy="-56.4238" rx="4.00002" ry="4.00002"/>
</g>
<!-- User -->
<g id="node10" class="node"><title>User</title>
<polyline fill="none" stroke="black" points="436.5,-453 695.5,-453 "/>
<path fill="none" stroke="black" d="M695.5,-453C701.5,-453 707.5,-459 707.5,-465"/>
<polyline fill="none" stroke="black" points="707.5,-465 707.5,-655 "/>
<path fill="none" stroke="black" d="M707.5,-655C707.5,-661 701.5,-667 695.5,-667"/>
<polyline fill="none" stroke="black" points="695.5,-667 436.5,-667 "/>
<path fill="none" stroke="black" d="M436.5,-667C430.5,-667 424.5,-661 424.5,-655"/>
<polyline fill="none" stroke="black" points="424.5,-655 424.5,-465 "/>
<path fill="none" stroke="black" d="M424.5,-465C424.5,-459 430.5,-453 436.5,-453"/>
<text text-anchor="middle" x="566" y="-650.4" font-family="Times Roman,serif" font-size="14.00">User</text>
<polyline fill="none" stroke="black" points="424.5,-641 707.5,-641 "/>
<text text-anchor="start" x="432.5" y="-624.4" font-family="Times Roman,serif" font-size="14.00">login :string</text>
<text text-anchor="start" x="432.5" y="-606.4" font-family="Times Roman,serif" font-size="14.00">email :string</text>
<text text-anchor="start" x="432.5" y="-588.4" font-family="Times Roman,serif" font-size="14.00">created_at :datetime</text>
<text text-anchor="start" x="432.5" y="-570.4" font-family="Times Roman,serif" font-size="14.00">updated_at :datetime</text>
<text text-anchor="start" x="432.5" y="-552.4" font-family="Times Roman,serif" font-size="14.00">remember_token :string</text>
<text text-anchor="start" x="432.5" y="-534.4" font-family="Times Roman,serif" font-size="14.00">remember_token_expires_at :datetime</text>
<text text-anchor="start" x="432.5" y="-516.4" font-family="Times Roman,serif" font-size="14.00">password :string</text>
<text text-anchor="start" x="432.5" y="-498.4" font-family="Times Roman,serif" font-size="14.00">state :string</text>
<text text-anchor="start" x="432.5" y="-480.4" font-family="Times Roman,serif" font-size="14.00">external :boolean</text>
<text text-anchor="start" x="432.5" y="-462.4" font-family="Times Roman,serif" font-size="14.00">show_in_website :boolean</text>
</g>
<!-- Message&#45;&gt;User -->
<g id="edge4" class="edge"><title>Message&#45;&gt;User</title>
<path fill="none" stroke="black" d="M342.121,-301.459C291.784,-339.659 246.312,-390.824 284,-434 301.871,-454.474 374.995,-443.279 414.699,-452.562"/>
<polygon fill="black" stroke="black" points="342.199,-301.401 352.911,-299.057 346.214,-298.422 350.23,-295.443 350.23,-295.443 350.23,-295.443 346.214,-298.422 347.549,-291.829 342.199,-301.401 342.199,-301.401"/>
<polygon fill="black" stroke="black" points="414.924,-452.631 423.153,-459.879 419.702,-454.105 424.48,-455.579 424.48,-455.579 424.48,-455.579 419.702,-454.105 425.806,-451.278 414.924,-452.631 414.924,-452.631"/>
<text text-anchor="middle" x="315.5" y="-421.4" font-family="Times Roman,serif" font-size="14.00">receivers</text>
</g>
<!-- MeetingMailer -->
<g id="node6" class="node"><title>MeetingMailer</title>
<polygon fill="none" stroke="black" points="977,-534 977,-586 1091,-586 1091,-534 977,-534"/>
<text text-anchor="middle" x="1034" y="-569.4" font-family="Times Roman,serif" font-size="14.00">MeetingMailer</text>
<polyline fill="none" stroke="black" points="977,-560 1091,-560 "/>
<text text-anchor="middle" x="1034" y="-543.4" font-family="Times Roman,serif" font-size="14.00"> </text>
</g>
<!-- UserMailer -->
<g id="node7" class="node"><title>UserMailer</title>
<polygon fill="none" stroke="black" points="1109,-534 1109,-586 1199,-586 1199,-534 1109,-534"/>
<text text-anchor="middle" x="1154" y="-569.4" font-family="Times Roman,serif" font-size="14.00">UserMailer</text>
<polyline fill="none" stroke="black" points="1109,-560 1199,-560 "/>
<text text-anchor="middle" x="1154" y="-543.4" font-family="Times Roman,serif" font-size="14.00"> </text>
</g>
<!-- MeetingObserver -->
<g id="node8" class="node"><title>MeetingObserver</title>
<polygon fill="none" stroke="black" points="1216.5,-534 1216.5,-586 1351.5,-586 1351.5,-534 1216.5,-534"/>
<text text-anchor="middle" x="1284" y="-569.4" font-family="Times Roman,serif" font-size="14.00">MeetingObserver</text>
<polyline fill="none" stroke="black" points="1216.5,-560 1351.5,-560 "/>
<text text-anchor="middle" x="1284" y="-543.4" font-family="Times Roman,serif" font-size="14.00"> </text>
</g>
<!-- User&#45;&gt;UserMessage -->
<g id="edge22" class="edge"><title>User&#45;&gt;UserMessage</title>
<path fill="none" stroke="black" d="M626.588,-443.188C627.471,-440.121 628.279,-437.055 629,-434 661.083,-298.093 617.437,-131.127 595.388,-60.7808"/>
<polygon fill="black" stroke="black" points="626.511,-443.436 619.23,-451.635 625.018,-448.207 623.524,-452.979 623.524,-452.979 623.524,-452.979 625.018,-448.207 627.819,-454.323 626.511,-443.436 626.511,-443.436"/>
<ellipse fill="black" stroke="black" cx="594.152" cy="-56.8972" rx="4.00001" ry="4.00001"/>
</g>
<!-- User&#45;&gt;Message -->
<g id="edge14" class="edge"><title>User&#45;&gt;Message</title>
<path fill="none" stroke="black" d="M501.335,-443.606C499.844,-440.385 498.396,-437.179 497,-434 478.972,-392.944 462.814,-345.09 451.243,-307.807"/>
<polygon fill="black" stroke="black" points="501.365,-443.67 501.572,-454.634 503.503,-448.19 505.64,-452.71 505.64,-452.71 505.64,-452.71 503.503,-448.19 509.708,-450.786 501.365,-443.67 501.365,-443.67"/>
<polygon fill="black" stroke="black" points="451.19,-307.636 452.554,-296.755 449.721,-302.857 448.253,-298.077 448.253,-298.077 448.253,-298.077 449.721,-302.857 443.951,-299.399 451.19,-307.636 451.19,-307.636"/>
<text text-anchor="middle" x="563" y="-421.4" font-family="Times Roman,serif" font-size="14.00">messages_received</text>
</g>
<!-- User&#45;&gt;Message -->
<g id="edge16" class="edge"><title>User&#45;&gt;Message</title>
<path fill="none" stroke="black" d="M415.455,-452.303C398.99,-444.194 390.329,-446.346 383,-434 359.594,-394.572 374.815,-344.126 394.413,-305.269"/>
<polygon fill="black" stroke="black" points="415.476,-452.315 421.987,-461.139 419.834,-454.765 424.192,-457.216 424.192,-457.216 424.192,-457.216 419.834,-454.765 426.398,-453.294 415.476,-452.315 415.476,-452.315"/>
<ellipse fill="black" stroke="black" cx="396.268" cy="-301.703" rx="4.00002" ry="4.00002"/>
<text text-anchor="middle" x="435" y="-421.4" font-family="Times Roman,serif" font-size="14.00">messages_sent</text>
</g>
<!-- User&#45;&gt;Profile -->
<g id="edge18" class="edge"><title>User&#45;&gt;Profile</title>
<path fill="none" stroke="black" d="M713.907,-452.701C734.312,-435.365 754.308,-416.88 772,-398 772.947,-396.99 773.891,-395.971 774.833,-394.943"/>
<ellipse fill="none" stroke="black" cx="710.623" cy="-455.466" rx="4.00002" ry="4.00002"/>
<ellipse fill="black" stroke="black" cx="777.528" cy="-391.942" rx="4.00002" ry="4.00002"/>
</g>
<!-- Role -->
<g id="node17" class="node"><title>Role</title>
<polyline fill="none" stroke="black" points="682.5,-219 751.5,-219 "/>
<path fill="none" stroke="black" d="M751.5,-219C757.5,-219 763.5,-225 763.5,-231"/>
<polyline fill="none" stroke="black" points="763.5,-231 763.5,-259 "/>
<path fill="none" stroke="black" d="M763.5,-259C763.5,-265 757.5,-271 751.5,-271"/>
<polyline fill="none" stroke="black" points="751.5,-271 682.5,-271 "/>
<path fill="none" stroke="black" d="M682.5,-271C676.5,-271 670.5,-265 670.5,-259"/>
<polyline fill="none" stroke="black" points="670.5,-259 670.5,-231 "/>
<path fill="none" stroke="black" d="M670.5,-231C670.5,-225 676.5,-219 682.5,-219"/>
<text text-anchor="middle" x="717" y="-254.4" font-family="Times Roman,serif" font-size="14.00">Role</text>
<polyline fill="none" stroke="black" points="670.5,-245 763.5,-245 "/>
<text text-anchor="start" x="678.5" y="-228.4" font-family="Times Roman,serif" font-size="14.00">title :string</text>
</g>
<!-- User&#45;&gt;Role -->
<g id="edge20" class="edge"><title>User&#45;&gt;Role</title>
<path fill="none" stroke="black" d="M651.733,-443.999C653.564,-440.665 655.324,-437.329 657,-434 682.439,-383.475 699.941,-319.945 709.214,-280.92"/>
<polygon fill="black" stroke="black" points="651.67,-444.112 642.821,-450.588 649.202,-448.461 646.735,-452.809 646.735,-452.809 646.735,-452.809 649.202,-448.461 650.648,-455.03 651.67,-444.112 651.67,-444.112"/>
<polygon fill="black" stroke="black" points="709.239,-280.812 715.885,-272.091 710.37,-275.942 711.502,-271.072 711.502,-271.072 711.502,-271.072 710.37,-275.942 707.119,-270.053 709.239,-280.812 709.239,-280.812"/>
</g>
<!-- Meeting -->
<g id="node11" class="node"><title>Meeting</title>
<polyline fill="none" stroke="black" points="1439.5,-707 1580.5,-707 "/>
<path fill="none" stroke="black" d="M1580.5,-707C1586.5,-707 1592.5,-713 1592.5,-719"/>
<polyline fill="none" stroke="black" points="1592.5,-719 1592.5,-873 "/>
<path fill="none" stroke="black" d="M1592.5,-873C1592.5,-879 1586.5,-885 1580.5,-885"/>
<polyline fill="none" stroke="black" points="1580.5,-885 1439.5,-885 "/>
<path fill="none" stroke="black" d="M1439.5,-885C1433.5,-885 1427.5,-879 1427.5,-873"/>
<polyline fill="none" stroke="black" points="1427.5,-873 1427.5,-719 "/>
<path fill="none" stroke="black" d="M1427.5,-719C1427.5,-713 1433.5,-707 1439.5,-707"/>
<text text-anchor="middle" x="1510" y="-868.4" font-family="Times Roman,serif" font-size="14.00">Meeting</text>
<polyline fill="none" stroke="black" points="1427.5,-859 1592.5,-859 "/>
<text text-anchor="start" x="1435.5" y="-842.4" font-family="Times Roman,serif" font-size="14.00">state :string</text>
<text text-anchor="start" x="1435.5" y="-824.4" font-family="Times Roman,serif" font-size="14.00">note_host :text</text>
<text text-anchor="start" x="1435.5" y="-806.4" font-family="Times Roman,serif" font-size="14.00">note_guest :text</text>
<text text-anchor="start" x="1435.5" y="-788.4" font-family="Times Roman,serif" font-size="14.00">cancel_reason :text</text>
<text text-anchor="start" x="1435.5" y="-770.4" font-family="Times Roman,serif" font-size="14.00">created_at :datetime</text>
<text text-anchor="start" x="1435.5" y="-752.4" font-family="Times Roman,serif" font-size="14.00">updated_at :datetime</text>
<text text-anchor="start" x="1435.5" y="-734.4" font-family="Times Roman,serif" font-size="14.00">starts_at :datetime</text>
<text text-anchor="start" x="1435.5" y="-716.4" font-family="Times Roman,serif" font-size="14.00">ends_at :datetime</text>
</g>
<!-- Town -->
<g id="node12" class="node"><title>Town</title>
<polyline fill="none" stroke="black" points="1622,-534 1702,-534 "/>
<path fill="none" stroke="black" d="M1702,-534C1708,-534 1714,-540 1714,-546"/>
<polyline fill="none" stroke="black" points="1714,-546 1714,-574 "/>
<path fill="none" stroke="black" d="M1714,-574C1714,-580 1708,-586 1702,-586"/>
<polyline fill="none" stroke="black" points="1702,-586 1622,-586 "/>
<path fill="none" stroke="black" d="M1622,-586C1616,-586 1610,-580 1610,-574"/>
<polyline fill="none" stroke="black" points="1610,-574 1610,-546 "/>
<path fill="none" stroke="black" d="M1610,-546C1610,-540 1616,-534 1622,-534"/>
<text text-anchor="middle" x="1662" y="-569.4" font-family="Times Roman,serif" font-size="14.00">Town</text>
<polyline fill="none" stroke="black" points="1610,-560 1714,-560 "/>
<text text-anchor="start" x="1618" y="-543.4" font-family="Times Roman,serif" font-size="14.00">name :string</text>
</g>
<!-- Province -->
<g id="node13" class="node"><title>Province</title>
<polyline fill="none" stroke="black" points="1622,-770 1702,-770 "/>
<path fill="none" stroke="black" d="M1702,-770C1708,-770 1714,-776 1714,-782"/>
<polyline fill="none" stroke="black" points="1714,-782 1714,-810 "/>
<path fill="none" stroke="black" d="M1714,-810C1714,-816 1708,-822 1702,-822"/>
<polyline fill="none" stroke="black" points="1702,-822 1622,-822 "/>
<path fill="none" stroke="black" d="M1622,-822C1616,-822 1610,-816 1610,-810"/>
<polyline fill="none" stroke="black" points="1610,-810 1610,-782 "/>
<path fill="none" stroke="black" d="M1610,-782C1610,-776 1616,-770 1622,-770"/>
<text text-anchor="middle" x="1662" y="-805.4" font-family="Times Roman,serif" font-size="14.00">Province</text>
<polyline fill="none" stroke="black" points="1610,-796 1714,-796 "/>
<text text-anchor="start" x="1618" y="-779.4" font-family="Times Roman,serif" font-size="14.00">name :string</text>
</g>
<!-- Province&#45;&gt;Town -->
<g id="edge24" class="edge"><title>Province&#45;&gt;Town</title>
<path fill="none" stroke="black" d="M1662,-759.603C1662,-714.57 1662,-638.464 1662,-594.382"/>
<polygon fill="black" stroke="black" points="1662,-759.842 1657.5,-769.842 1662,-764.842 1662,-769.842 1662,-769.842 1662,-769.842 1662,-764.842 1666.5,-769.842 1662,-759.842 1662,-759.842"/>
<ellipse fill="black" stroke="black" cx="1662" cy="-590.275" rx="4" ry="4"/>
</g>
<!-- Country -->
<g id="node14" class="node"><title>Country</title>
<polyline fill="none" stroke="black" points="1744,-761 1824,-761 "/>
<path fill="none" stroke="black" d="M1824,-761C1830,-761 1836,-767 1836,-773"/>
<polyline fill="none" stroke="black" points="1836,-773 1836,-819 "/>
<path fill="none" stroke="black" d="M1836,-819C1836,-825 1830,-831 1824,-831"/>
<polyline fill="none" stroke="black" points="1824,-831 1744,-831 "/>
<path fill="none" stroke="black" d="M1744,-831C1738,-831 1732,-825 1732,-819"/>
<polyline fill="none" stroke="black" points="1732,-819 1732,-773 "/>
<path fill="none" stroke="black" d="M1732,-773C1732,-767 1738,-761 1744,-761"/>
<text text-anchor="middle" x="1784" y="-814.4" font-family="Times Roman,serif" font-size="14.00">Country</text>
<polyline fill="none" stroke="black" points="1732,-805 1836,-805 "/>
<text text-anchor="start" x="1740" y="-788.4" font-family="Times Roman,serif" font-size="14.00">name :string</text>
<text text-anchor="start" x="1740" y="-770.4" font-family="Times Roman,serif" font-size="14.00">code :string</text>
</g>
<!-- Preference -->
<g id="node15" class="node"><title>Preference</title>
<polyline fill="none" stroke="black" points="302,-707 482,-707 "/>
<path fill="none" stroke="black" d="M482,-707C488,-707 494,-713 494,-719"/>
<polyline fill="none" stroke="black" points="494,-719 494,-873 "/>
<path fill="none" stroke="black" d="M494,-873C494,-879 488,-885 482,-885"/>
<polyline fill="none" stroke="black" points="482,-885 302,-885 "/>
<path fill="none" stroke="black" d="M302,-885C296,-885 290,-879 290,-873"/>
<polyline fill="none" stroke="black" points="290,-873 290,-719 "/>
<path fill="none" stroke="black" d="M290,-719C290,-713 296,-707 302,-707"/>
<text text-anchor="middle" x="392" y="-868.4" font-family="Times Roman,serif" font-size="14.00">Preference</text>
<polyline fill="none" stroke="black" points="290,-859 494,-859 "/>
<text text-anchor="start" x="298" y="-842.4" font-family="Times Roman,serif" font-size="14.00">meetings_number :integer</text>
<text text-anchor="start" x="298" y="-824.4" font-family="Times Roman,serif" font-size="14.00">meetings_duration :integer</text>
<text text-anchor="start" x="298" y="-806.4" font-family="Times Roman,serif" font-size="14.00">event_start_day :date</text>
<text text-anchor="start" x="298" y="-788.4" font-family="Times Roman,serif" font-size="14.00">event_end_day :date</text>
<text text-anchor="start" x="298" y="-770.4" font-family="Times Roman,serif" font-size="14.00">event_day_start_at :time</text>
<text text-anchor="start" x="298" y="-752.4" font-family="Times Roman,serif" font-size="14.00">event_day_end_at :time</text>
<text text-anchor="start" x="298" y="-734.4" font-family="Times Roman,serif" font-size="14.00">created_at :datetime</text>
<text text-anchor="start" x="298" y="-716.4" font-family="Times Roman,serif" font-size="14.00">updated_at :datetime</text>
</g>
<!-- Preference&#45;&gt;Assistance -->
<g id="edge28" class="edge"><title>Preference&#45;&gt;Assistance</title>
<path fill="none" stroke="black" d="M363.927,-697.117C357.536,-674.603 350.873,-651.136 344.904,-630.111"/>
<polygon fill="black" stroke="black" points="363.939,-697.159 362.341,-708.008 365.305,-701.969 366.67,-706.779 366.67,-706.779 366.67,-706.779 365.305,-701.969 370.999,-705.55 363.939,-697.159 363.939,-697.159"/>
<ellipse fill="black" stroke="black" cx="343.745" cy="-626.028" rx="4.00001" ry="4.00001"/>
</g>
<!-- Preference&#45;&gt;User -->
<g id="edge26" class="edge"><title>Preference&#45;&gt;User</title>
<path fill="none" stroke="black" d="M463.855,-698.542C469.808,-690.467 475.86,-682.259 481.893,-674.077"/>
<polygon fill="black" stroke="black" points="463.716,-698.73 454.16,-704.108 460.749,-702.754 457.782,-706.779 457.782,-706.779 457.782,-706.779 460.749,-702.754 461.404,-709.449 463.716,-698.73 463.716,-698.73"/>
<ellipse fill="black" stroke="black" cx="484.579" cy="-670.432" rx="4.00002" ry="4.00002"/>
</g>
<!-- TimelineEvent -->
<g id="node16" class="node"><title>TimelineEvent</title>
<polyline fill="none" stroke="black" points="1866,-725 2072,-725 "/>
<path fill="none" stroke="black" d="M2072,-725C2078,-725 2084,-731 2084,-737"/>
<polyline fill="none" stroke="black" points="2084,-737 2084,-855 "/>
<path fill="none" stroke="black" d="M2084,-855C2084,-861 2078,-867 2072,-867"/>
<polyline fill="none" stroke="black" points="2072,-867 1866,-867 "/>
<path fill="none" stroke="black" d="M1866,-867C1860,-867 1854,-861 1854,-855"/>
<polyline fill="none" stroke="black" points="1854,-855 1854,-737 "/>
<path fill="none" stroke="black" d="M1854,-737C1854,-731 1860,-725 1866,-725"/>
<text text-anchor="middle" x="1969" y="-850.4" font-family="Times Roman,serif" font-size="14.00">TimelineEvent</text>
<polyline fill="none" stroke="black" points="1854,-841 2084,-841 "/>
<text text-anchor="start" x="1862" y="-824.4" font-family="Times Roman,serif" font-size="14.00">event_type :string</text>
<text text-anchor="start" x="1862" y="-806.4" font-family="Times Roman,serif" font-size="14.00">subject_type :string</text>
<text text-anchor="start" x="1862" y="-788.4" font-family="Times Roman,serif" font-size="14.00">actor_type :string</text>
<text text-anchor="start" x="1862" y="-770.4" font-family="Times Roman,serif" font-size="14.00">secondary_subject_type :string</text>
<text text-anchor="start" x="1862" y="-752.4" font-family="Times Roman,serif" font-size="14.00">created_at :datetime</text>
<text text-anchor="start" x="1862" y="-734.4" font-family="Times Roman,serif" font-size="14.00">updated_at :datetime</text>
</g>
<!-- ActionMailer::Base -->
<g id="node21" class="node"><title>ActionMailer::Base</title>
<ellipse fill="none" stroke="black" cx="1036" cy="-796" rx="101.823" ry="18.3848"/>
<text text-anchor="middle" x="1036" y="-792.4" font-family="Times Roman,serif" font-size="14.00">ActionMailer::Base</text>
</g>
<!-- ActionMailer::Base&#45;&gt;MeetingMailer -->
<g id="edge8" class="edge"><title>ActionMailer::Base&#45;&gt;MeetingMailer</title>
<path fill="none" stroke="black" d="M1035.84,-777.481C1035.49,-735.755 1034.63,-634.285 1034.22,-586.158"/>
</g>
<!-- ActionMailer::Base&#45;&gt;UserMailer -->
<g id="edge10" class="edge"><title>ActionMailer::Base&#45;&gt;UserMailer</title>
<path fill="none" stroke="black" d="M1045.26,-777.481C1066.12,-735.755 1116.86,-634.285 1140.92,-586.158"/>
</g>
<!-- ActiveRecord::Observer -->
<g id="node24" class="node"><title>ActiveRecord::Observer</title>
<ellipse fill="none" stroke="black" cx="1284" cy="-796" rx="125.865" ry="18.3848"/>
<text text-anchor="middle" x="1284" y="-792.4" font-family="Times Roman,serif" font-size="14.00">ActiveRecord::Observer</text>
</g>
<!-- ActiveRecord::Observer&#45;&gt;MeetingObserver -->
<g id="edge12" class="edge"><title>ActiveRecord::Observer&#45;&gt;MeetingObserver</title>
<path fill="none" stroke="black" d="M1284,-777.481C1284,-735.755 1284,-634.285 1284,-586.158"/>
</g>
</g>
</svg>
